<?xml version="1.0" standalone="no"?>
<!DOCTYPE svg PUBLIC "-//W3C//DTD SVG 20010904//EN"
 "http://www.w3.org/TR/2001/REC-SVG-20010904/DTD/svg10.dtd">
<svg version="1.0" xmlns="http://www.w3.org/2000/svg"
 width="512.000000pt" height="512.000000pt" viewBox="0 0 512.000000 512.000000"
 preserveAspectRatio="xMidYMid meet">
<metadata>
Created by potrace 1.14, written by Peter Selinger 2001-2017
</metadata>
<g transform="translate(0.000000,512.000000) scale(0.100000,-0.100000)"
fill="#000000" stroke="none">
<path d="M2292 4509 c-51 -10 -162 -58 -162 -71 0 -5 -4 -7 -8 -4 -5 3 -20 -6
-34 -19 -14 -13 -29 -21 -32 -18 -3 4 -6 1 -6 -5 0 -6 -16 -19 -35 -28 -19 -9
-35 -20 -35 -24 0 -4 -12 -12 -27 -19 -22 -10 -24 -14 -12 -22 12 -9 12 -10
-1 -8 -26 3 -36 -1 -56 -19 -10 -9 -32 -25 -47 -35 -15 -10 -25 -23 -21 -29 5
-7 2 -8 -6 -3 -7 4 -15 4 -19 -1 -14 -20 -57 -36 -132 -49 -180 -32 -312 -133
-401 -307 -20 -40 -37 -69 -38 -64 0 5 -7 3 -15 -4 -8 -7 -12 -16 -9 -21 3 -5
-1 -7 -8 -4 -7 3 -25 -6 -40 -20 -15 -14 -32 -25 -37 -25 -5 0 -17 -10 -25
-22 -9 -12 -16 -18 -16 -13 0 6 -7 1 -15 -9 -8 -11 -15 -17 -15 -13 0 4 -10
-1 -22 -13 -12 -11 -26 -20 -30 -20 -5 0 -6 -4 -3 -10 3 -5 0 -8 -7 -5 -7 3
-40 -19 -73 -49 -55 -49 -59 -55 -45 -72 14 -17 13 -18 -1 -7 -20 16 -35 1
-76 -77 -36 -69 -54 -122 -58 -169 -2 -20 -4 -36 -6 -36 -1 0 -3 -10 -4 -23
-2 -19 0 -20 14 -10 12 10 12 8 -2 -8 -20 -24 -23 -64 -4 -64 8 0 7 -4 -3 -11
-10 -7 -11 -12 -4 -15 6 -3 10 -19 8 -35 -3 -26 -1 -30 14 -25 15 5 15 5 1 -6
-17 -14 -15 -93 3 -115 6 -7 6 -13 1 -13 -5 0 -7 -16 -5 -35 3 -23 8 -32 16
-28 6 4 4 -2 -4 -12 -13 -17 -13 -18 0 -10 11 6 12 5 4 -4 -7 -7 -8 -29 -4
-58 7 -43 -2 -93 -20 -118 -23 -31 -43 -137 -43 -221 0 -118 29 -213 93 -314
43 -66 50 -84 55 -145 4 -39 12 -73 18 -77 7 -4 8 -8 2 -8 -6 0 -9 -17 -7 -40
2 -22 7 -38 11 -36 4 3 8 -5 8 -17 2 -18 0 -19 -8 -7 -8 12 -9 11 -5 -5 3 -11
7 -35 8 -52 1 -18 7 -33 13 -33 7 0 7 -3 0 -8 -7 -5 -7 -17 0 -40 6 -18 15
-29 19 -25 4 4 4 0 1 -9 -7 -18 32 -118 46 -118 5 0 9 -6 9 -14 0 -8 14 -28
30 -46 17 -18 30 -35 30 -39 0 -10 72 -64 86 -64 7 0 11 -4 9 -8 -7 -11 23
-32 35 -24 5 3 10 1 10 -5 0 -6 17 -18 38 -26 20 -8 53 -23 72 -32 19 -9 38
-15 43 -14 4 1 7 -3 7 -8 0 -5 3 -9 8 -8 7 1 75 -26 104 -42 11 -6 18 -5 21 3
3 7 6 6 6 -4 1 -10 19 -23 44 -33 27 -10 51 -29 67 -53 134 -198 335 -293 555
-264 60 8 76 6 114 -10 24 -11 54 -17 65 -14 14 4 17 3 8 -3 -9 -6 5 -17 50
-37 35 -15 78 -34 97 -43 18 -8 39 -15 47 -15 8 0 14 -4 14 -7 0 -7 16 -12 78
-26 8 -1 16 -5 19 -8 4 -3 12 2 19 12 10 14 15 15 26 4 11 -11 10 -12 -4 -7
-11 4 -18 2 -18 -5 0 -16 191 -5 202 12 5 8 8 9 8 2 0 -19 90 16 91 35 0 9 3
11 5 5 6 -15 74 16 74 34 0 7 4 11 10 7 13 -8 50 17 50 33 0 7 5 10 10 7 15
-9 41 14 33 29 -3 6 -3 8 2 4 14 -13 47 12 40 30 -5 13 -3 14 6 5 15 -15 44
11 33 29 -6 10 -4 10 8 0 14 -11 18 -10 27 5 6 10 11 14 11 10 0 -5 18 6 41
24 34 27 55 34 132 45 218 32 364 134 456 321 17 34 31 66 31 72 0 5 13 20 29
34 17 14 27 28 23 31 -3 4 2 4 13 0 14 -6 17 -4 12 9 -4 10 -2 14 6 11 7 -2
37 14 67 36 30 23 66 49 79 58 65 47 72 55 66 71 -5 12 -3 13 6 4 9 -9 19 -4
43 23 51 56 57 64 49 64 -4 0 -3 4 2 8 21 14 56 72 50 82 -3 5 -2 10 2 10 5 0
17 23 27 50 15 41 16 53 6 65 -11 13 -10 14 5 9 13 -5 16 -3 13 7 -3 8 -1 22
4 33 8 14 7 17 -4 10 -11 -6 -11 -5 0 8 10 13 10 17 0 21 -10 4 -10 6 1 6 11
1 11 4 1 16 -10 12 -10 19 -2 27 8 8 7 15 -6 25 -16 12 -16 13 2 6 15 -5 17
-3 11 7 -8 13 -11 44 -14 140 -1 33 -4 41 -11 30 -6 -9 -10 -10 -10 -3 0 6 4
14 9 17 5 3 5 21 1 40 -4 19 -5 38 -2 41 4 3 0 10 -8 15 -8 6 -10 10 -5 10 6
0 9 17 7 39 -3 25 4 56 17 86 88 199 66 406 -64 589 -22 31 -35 60 -35 80 0
18 -6 38 -12 45 -11 11 -10 12 1 6 10 -6 12 -4 7 4 -7 11 -16 86 -16 139 0 16
-4 21 -13 16 -9 -6 -9 -4 -1 7 6 8 10 23 8 34 -2 11 -4 34 -5 50 -2 17 -10 39
-18 49 -12 15 -13 17 -2 11 10 -6 13 -4 9 6 -3 8 -13 39 -23 69 -10 30 -23 58
-29 62 -6 4 -8 8 -3 8 16 0 -66 114 -107 149 -10 9 -28 25 -40 37 -31 31 -109
72 -125 66 -8 -3 -11 0 -7 7 4 6 1 11 -9 11 -9 0 -27 7 -40 16 -13 9 -30 12
-36 8 -8 -5 -9 -3 -4 6 6 10 3 12 -13 8 -12 -4 -20 -3 -17 1 5 9 -65 44 -72
37 -3 -3 -12 1 -20 9 -8 8 -37 22 -66 32 -33 12 -64 32 -87 57 -127 142 -191
187 -315 225 -54 16 -90 20 -165 17 -68 -2 -103 1 -123 11 -16 8 -35 12 -43 9
-8 -3 -12 -2 -9 3 4 8 -20 22 -45 26 -3 0 -15 6 -26 13 -12 6 -24 8 -28 5 -3
-3 -6 -2 -6 4 0 15 -76 47 -91 38 -7 -5 -10 -4 -6 2 6 9 -54 39 -69 34 -4 -2
-10 1 -13 7 -3 5 -27 16 -53 25 -43 14 -47 14 -51 -1 -4 -15 -5 -15 -6 1 0 9
-6 17 -12 17 -5 0 -7 -6 -3 -12 6 -10 5 -10 -7 -2 -16 13 -122 15 -187 3z m-8
-39 c-6 -6 -10 -3 -10 10 0 13 4 16 10 10 7 -7 7 -13 0 -20z m46 16 c0 -3 -4
-8 -10 -11 -5 -3 -10 -1 -10 4 0 6 5 11 10 11 6 0 10 -2 10 -4z m77 -71 c0 -8
-4 -12 -9 -9 -5 3 -6 10 -3 15 9 13 12 11 12 -6z m327 -13 c3 -5 -1 -9 -9 -9
-8 0 -12 4 -9 9 3 4 7 8 9 8 2 0 6 -4 9 -8z m31 -1 c3 -5 2 -12 -3 -15 -5 -3
-9 1 -9 9 0 17 3 19 12 6z m-235 -25 c0 -2 -8 -10 -17 -17 -16 -13 -17 -12 -4
4 13 16 21 21 21 13z m-390 -10 c0 -2 -8 -10 -17 -17 -16 -13 -17 -12 -4 4 13
16 21 21 21 13z m181 -13 c13 -16 12 -17 -3 -4 -10 7 -18 15 -18 17 0 8 8 3
21 -13z m285 -39 c1 -9 0 -13 -4 -10 -3 4 -7 14 -8 22 -1 9 0 13 4 10 3 -4 7
-14 8 -22z m-26 12 c0 -2 -8 -10 -17 -17 -16 -13 -17 -12 -4 4 13 16 21 21 21
13z m-679 -79 c-10 -9 -11 -8 -5 6 3 10 9 15 12 12 3 -3 0 -11 -7 -18z m1860
-294 c13 -16 12 -17 -3 -4 -17 13 -22 21 -14 21 2 0 10 -8 17 -17z m130 -150
c13 -16 12 -17 -3 -4 -17 13 -22 21 -14 21 2 0 10 -8 17 -17z m-46 -52 c3 -5
2 -12 -3 -15 -5 -3 -9 1 -9 9 0 17 3 19 12 6z m-2635 -15 c0 -2 -8 -10 -17
-17 -16 -13 -17 -12 -4 4 13 16 21 21 21 13z m-43 -21 c0 -8 -4 -12 -9 -9 -5
3 -6 10 -3 15 9 13 12 11 12 -6z m2813 11 c0 -2 -8 -10 -17 -17 -16 -13 -17
-12 -4 4 13 16 21 21 21 13z m155 -26 c-3 -5 -12 -10 -18 -10 -7 0 -6 4 3 10
19 12 23 12 15 0z m-3005 -14 c0 -2 -7 -7 -16 -10 -8 -3 -12 -2 -9 4 6 10 25
14 25 6z m3050 -40 c0 -2 -8 -10 -17 -17 -16 -13 -17 -12 -4 4 13 16 21 21 21
13z m-3045 -66 c3 -6 -1 -7 -9 -4 -18 7 -21 14 -7 14 6 0 13 -4 16 -10z m2840
-20 c-3 -5 -12 -10 -18 -10 -7 0 -6 4 3 10 19 12 23 12 15 0z m-3070 -29 c3
-5 2 -12 -3 -15 -5 -3 -9 1 -9 9 0 17 3 19 12 6z m3305 5 c0 -2 -8 -10 -17
-17 -16 -13 -17 -12 -4 4 13 16 21 21 21 13z m-70 -12 c0 -8 -19 -13 -24 -6
-3 5 1 9 9 9 8 0 15 -2 15 -3z m-3100 -80 c0 -8 -19 -13 -24 -6 -3 5 1 9 9 9
8 0 15 -2 15 -3z m3100 2 c0 -2 -8 -10 -17 -17 -16 -13 -17 -12 -4 4 13 16 21
21 21 13z m70 -82 c0 -8 -19 -13 -24 -6 -3 5 1 9 9 9 8 0 15 -2 15 -3z m55
-112 c-3 -3 -11 0 -18 7 -9 10 -8 11 6 5 10 -3 15 -9 12 -12z m-35 -32 c0 -5
-2 -10 -4 -10 -3 0 -8 5 -11 10 -3 6 -1 10 4 10 6 0 11 -4 11 -10z m-3380 -84
c0 -2 -8 -10 -17 -17 -16 -13 -17 -12 -4 4 13 16 21 21 21 13z m-6 -214 c3 -5
-1 -9 -9 -9 -8 0 -12 4 -9 9 3 4 7 8 9 8 2 0 6 -4 9 -8z m3491 -721 c-9 -8
-36 -10 -30 -2 2 4 11 8 20 8 8 0 13 -3 10 -6z m-48 -16 c0 -8 -4 -12 -9 -9
-5 3 -6 10 -3 15 9 13 12 11 12 -6z m-33 -143 c3 -5 -1 -9 -9 -9 -8 0 -12 4
-9 9 3 4 7 8 9 8 2 0 6 -4 9 -8z m-4 -26 c0 -2 -8 -10 -17 -17 -16 -13 -17
-12 -4 4 13 16 21 21 21 13z m-60 -92 c0 -8 -19 -13 -24 -6 -3 5 1 9 9 9 8 0
15 -2 15 -3z m-3240 -78 c0 -2 -7 -7 -16 -10 -8 -3 -12 -2 -9 4 6 10 25 14 25
6z m40 -71 c0 -2 -9 -3 -19 -2 -11 0 -18 5 -15 9 4 6 34 0 34 -7z m-50 -9 c0
-2 -8 -10 -17 -17 -16 -13 -17 -12 -4 4 13 16 21 21 21 13z m-36 -52 c3 -8 2
-12 -4 -9 -6 3 -10 10 -10 16 0 14 7 11 14 -7z m139 -29 c-3 -9 -8 -14 -10
-11 -3 3 -2 9 2 15 9 16 15 13 8 -4z m3161 -15 c-6 -6 -10 -3 -10 10 0 13 4
16 10 10 7 -7 7 -13 0 -20z m40 4 c3 -8 2 -12 -4 -9 -6 3 -10 10 -10 16 0 14
7 11 14 -7z m-3134 -48 c0 -3 -4 -8 -10 -11 -5 -3 -10 -1 -10 4 0 6 5 11 10
11 6 0 10 -2 10 -4z m97 -181 c0 -8 -4 -12 -9 -9 -5 3 -6 10 -3 15 9 13 12 11
12 -6z m-206 -12 c13 -16 12 -17 -3 -4 -10 7 -18 15 -18 17 0 8 8 3 21 -13z
m19 -29 c0 -8 -19 -13 -24 -6 -3 5 1 9 9 9 8 0 15 -2 15 -3z m284 -42 c3 -5
-1 -9 -9 -9 -8 0 -12 4 -9 9 3 4 7 8 9 8 2 0 6 -4 9 -8z m-99 -41 c3 -5 2 -12
-3 -15 -5 -3 -9 1 -9 9 0 17 3 19 12 6z m280 -201 c3 -5 1 -10 -4 -10 -6 0
-11 5 -11 10 0 6 2 10 4 10 3 0 8 -4 11 -10z m1359 -286 c3 -8 2 -12 -4 -9 -6
3 -10 10 -10 16 0 14 7 11 14 -7z m56 12 c0 -2 -8 -10 -17 -17 -16 -13 -17
-12 -4 4 13 16 21 21 21 13z m-540 -66 c-8 -5 -19 -10 -25 -10 -5 0 -3 5 5 10
8 5 20 10 25 10 6 0 3 -5 -5 -10z m121 -27 c13 -16 12 -17 -3 -4 -17 13 -22
21 -14 21 2 0 10 -8 17 -17z m24 -73 c3 -5 1 -10 -4 -10 -6 0 -11 5 -11 10 0
6 2 10 4 10 3 0 8 -4 11 -10z m96 -47 c13 -16 12 -17 -3 -4 -10 7 -18 15 -18
17 0 8 8 3 21 -13z"/>
</g>
</svg>
